<?xml version="1.0" encoding="utf-8"?>
<!-- Generator: Adobe Illustrator 17.1.0, SVG Export Plug-In . SVG Version: 6.00 Build 0)  -->
<!DOCTYPE svg PUBLIC "-//W3C//DTD SVG 1.1//EN" "http://www.w3.org/Graphics/SVG/1.1/DTD/svg11.dtd">
<svg version="1.1" id="Layer_1" xmlns="http://www.w3.org/2000/svg" xmlns:xlink="http://www.w3.org/1999/xlink" x="0px" y="0px"
	 viewBox="0 0 48 48" enable-background="new 0 0 48 48" xml:space="preserve">
<path fill="#333333" d="M37.1,6.6h-9.8c-1.8,0-4.3,1.1-5.6,2.3L6.6,24.1c-1.3,1.3-1.3,3.3,0,4.6l11.7,11.7c1.3,1.3,3.3,1.3,4.6,0
	l15.2-15.2c1.3-1.3,2.3-3.8,2.3-5.6V9.9C40.4,8.1,38.9,6.6,37.1,6.6z M32.8,17.5c-1.8,0-3.3-1.5-3.3-3.3s1.5-3.3,3.3-3.3
	s3.3,1.5,3.3,3.3S34.6,17.5,32.8,17.5z"/>
</svg>
